<mxfile host="Electron" agent="Mozilla/5.0 (Windows NT 10.0; Win64; x64) AppleWebKit/537.36 (KHTML, like Gecko) draw.io/24.7.17 Chrome/128.0.6613.36 Electron/32.0.1 Safari/537.36" version="24.7.17">
  <diagram name="第 1 页" id="8-uOKyJFhzpOX7x2z2gW">
    <mxGraphModel dx="627" dy="380" grid="1" gridSize="10" guides="1" tooltips="1" connect="1" arrows="1" fold="1" page="1" pageScale="1" pageWidth="827" pageHeight="1169" math="0" shadow="0">
      <root>
        <mxCell id="0" />
        <mxCell id="1" parent="0" />
        <mxCell id="7I-5DfgB0YSvkT2r_JNi-3" style="edgeStyle=orthogonalEdgeStyle;rounded=0;orthogonalLoop=1;jettySize=auto;html=1;entryX=0;entryY=0.5;entryDx=0;entryDy=0;" edge="1" parent="1" source="7I-5DfgB0YSvkT2r_JNi-1" target="7I-5DfgB0YSvkT2r_JNi-2">
          <mxGeometry relative="1" as="geometry" />
        </mxCell>
        <mxCell id="7I-5DfgB0YSvkT2r_JNi-4" value="编译打包" style="edgeLabel;html=1;align=center;verticalAlign=middle;resizable=0;points=[];" vertex="1" connectable="0" parent="7I-5DfgB0YSvkT2r_JNi-3">
          <mxGeometry x="-0.1333" y="1" relative="1" as="geometry">
            <mxPoint as="offset" />
          </mxGeometry>
        </mxCell>
        <mxCell id="7I-5DfgB0YSvkT2r_JNi-1" value="Math.java&lt;div&gt;User.java&lt;/div&gt;" style="rounded=0;whiteSpace=wrap;html=1;" vertex="1" parent="1">
          <mxGeometry x="80" y="100" width="120" height="60" as="geometry" />
        </mxCell>
        <mxCell id="7I-5DfgB0YSvkT2r_JNi-9" value="" style="edgeStyle=orthogonalEdgeStyle;rounded=0;orthogonalLoop=1;jettySize=auto;html=1;" edge="1" parent="1" source="7I-5DfgB0YSvkT2r_JNi-2" target="7I-5DfgB0YSvkT2r_JNi-8">
          <mxGeometry relative="1" as="geometry" />
        </mxCell>
        <mxCell id="7I-5DfgB0YSvkT2r_JNi-10" value="1.加载Math.class" style="edgeLabel;html=1;align=center;verticalAlign=middle;resizable=0;points=[];" vertex="1" connectable="0" parent="7I-5DfgB0YSvkT2r_JNi-9">
          <mxGeometry x="-0.08" y="-2" relative="1" as="geometry">
            <mxPoint x="-18" as="offset" />
          </mxGeometry>
        </mxCell>
        <mxCell id="7I-5DfgB0YSvkT2r_JNi-19" style="edgeStyle=orthogonalEdgeStyle;rounded=0;orthogonalLoop=1;jettySize=auto;html=1;entryX=1;entryY=0.5;entryDx=0;entryDy=0;exitX=1;exitY=1;exitDx=0;exitDy=0;" edge="1" parent="1" source="7I-5DfgB0YSvkT2r_JNi-2">
          <mxGeometry relative="1" as="geometry">
            <mxPoint x="440" y="120" as="sourcePoint" />
            <mxPoint x="440" y="210" as="targetPoint" />
            <Array as="points">
              <mxPoint x="460" y="160" />
              <mxPoint x="460" y="210" />
            </Array>
          </mxGeometry>
        </mxCell>
        <mxCell id="7I-5DfgB0YSvkT2r_JNi-21" value="3.加载User.class" style="edgeLabel;html=1;align=center;verticalAlign=middle;resizable=0;points=[];" vertex="1" connectable="0" parent="7I-5DfgB0YSvkT2r_JNi-19">
          <mxGeometry x="-0.0815" y="-1" relative="1" as="geometry">
            <mxPoint x="-9" as="offset" />
          </mxGeometry>
        </mxCell>
        <mxCell id="7I-5DfgB0YSvkT2r_JNi-2" value="Math.class&lt;div&gt;User.class&lt;/div&gt;" style="rounded=0;whiteSpace=wrap;html=1;" vertex="1" parent="1">
          <mxGeometry x="320" y="100" width="120" height="60" as="geometry" />
        </mxCell>
        <mxCell id="7I-5DfgB0YSvkT2r_JNi-12" value="" style="edgeStyle=orthogonalEdgeStyle;rounded=0;orthogonalLoop=1;jettySize=auto;html=1;" edge="1" parent="1" source="7I-5DfgB0YSvkT2r_JNi-8" target="7I-5DfgB0YSvkT2r_JNi-11">
          <mxGeometry relative="1" as="geometry" />
        </mxCell>
        <mxCell id="7I-5DfgB0YSvkT2r_JNi-8" value="验证" style="rounded=0;whiteSpace=wrap;html=1;" vertex="1" parent="1">
          <mxGeometry x="320" y="210" width="120" height="60" as="geometry" />
        </mxCell>
        <mxCell id="7I-5DfgB0YSvkT2r_JNi-14" value="" style="edgeStyle=orthogonalEdgeStyle;rounded=0;orthogonalLoop=1;jettySize=auto;html=1;" edge="1" parent="1" source="7I-5DfgB0YSvkT2r_JNi-11" target="7I-5DfgB0YSvkT2r_JNi-13">
          <mxGeometry relative="1" as="geometry" />
        </mxCell>
        <mxCell id="7I-5DfgB0YSvkT2r_JNi-11" value="准备" style="rounded=0;whiteSpace=wrap;html=1;" vertex="1" parent="1">
          <mxGeometry x="320" y="290" width="120" height="60" as="geometry" />
        </mxCell>
        <mxCell id="7I-5DfgB0YSvkT2r_JNi-16" value="" style="edgeStyle=orthogonalEdgeStyle;rounded=0;orthogonalLoop=1;jettySize=auto;html=1;" edge="1" parent="1" source="7I-5DfgB0YSvkT2r_JNi-13" target="7I-5DfgB0YSvkT2r_JNi-15">
          <mxGeometry relative="1" as="geometry" />
        </mxCell>
        <mxCell id="7I-5DfgB0YSvkT2r_JNi-13" value="解析" style="rounded=0;whiteSpace=wrap;html=1;" vertex="1" parent="1">
          <mxGeometry x="320" y="370" width="120" height="60" as="geometry" />
        </mxCell>
        <mxCell id="7I-5DfgB0YSvkT2r_JNi-17" style="edgeStyle=orthogonalEdgeStyle;rounded=0;orthogonalLoop=1;jettySize=auto;html=1;entryX=1;entryY=0.5;entryDx=0;entryDy=0;" edge="1" parent="1" source="7I-5DfgB0YSvkT2r_JNi-15" target="7I-5DfgB0YSvkT2r_JNi-2">
          <mxGeometry relative="1" as="geometry">
            <Array as="points">
              <mxPoint x="500" y="480" />
              <mxPoint x="500" y="130" />
            </Array>
          </mxGeometry>
        </mxCell>
        <mxCell id="7I-5DfgB0YSvkT2r_JNi-18" value="2.依赖User.class" style="edgeLabel;html=1;align=center;verticalAlign=middle;resizable=0;points=[];" vertex="1" connectable="0" parent="7I-5DfgB0YSvkT2r_JNi-17">
          <mxGeometry x="0.0255" relative="1" as="geometry">
            <mxPoint as="offset" />
          </mxGeometry>
        </mxCell>
        <mxCell id="7I-5DfgB0YSvkT2r_JNi-23" value="" style="edgeStyle=orthogonalEdgeStyle;rounded=0;orthogonalLoop=1;jettySize=auto;html=1;" edge="1" parent="1" source="7I-5DfgB0YSvkT2r_JNi-15" target="7I-5DfgB0YSvkT2r_JNi-22">
          <mxGeometry relative="1" as="geometry" />
        </mxCell>
        <mxCell id="7I-5DfgB0YSvkT2r_JNi-15" value="初始化" style="rounded=0;whiteSpace=wrap;html=1;" vertex="1" parent="1">
          <mxGeometry x="320" y="450" width="120" height="60" as="geometry" />
        </mxCell>
        <mxCell id="7I-5DfgB0YSvkT2r_JNi-22" value="JVM" style="rounded=0;whiteSpace=wrap;html=1;" vertex="1" parent="1">
          <mxGeometry x="320" y="530" width="120" height="60" as="geometry" />
        </mxCell>
      </root>
    </mxGraphModel>
  </diagram>
</mxfile>
